<?xml version="1.0" standalone="no"?>
<!DOCTYPE svg PUBLIC "-//W3C//DTD SVG 20010904//EN"
 "http://www.w3.org/TR/2001/REC-SVG-20010904/DTD/svg10.dtd">
<svg version="1.0" xmlns="http://www.w3.org/2000/svg"
 width="472.000000pt" height="472.000000pt" viewBox="0 0 472.000000 472.000000"
 preserveAspectRatio="xMidYMid meet">
<metadata>
Created by potrace 1.11, written by Peter Selinger 2001-2013
</metadata>
<g transform="translate(0.000000,472.000000) scale(0.100000,-0.100000)"
fill="#000000" stroke="none">
<path d="M2140 4714 c-297 -33 -583 -115 -834 -241 -635 -318 -1099 -910
-1250 -1595 -47 -213 -56 -320 -52 -568 8 -389 82 -688 256 -1030 354 -693
1058 -1181 1828 -1267 130 -15 509 -9 622 10 277 46 494 117 730 238 593 303
1030 848 1203 1499 60 227 72 322 71 605 0 275 -14 384 -74 612 -191 717 -733
1317 -1435 1588 -163 63 -299 98 -545 140 -41 7 -469 14 -520 9z"/>
</g>
</svg>
